<svg id="Calque_1" width="100px" data-name="Calque 1" xmlns="http://www.w3.org/2000/svg" viewBox="0 0 1920 1080"><defs><style>.cls-1{fill:#1d1d1b;}.cls-2,.cls-3{fill:#fff;}.cls-2,.cls-3,.cls-5{stroke:#1d1d1b;}.cls-3{stroke-miterlimit:10;}.cls-4{fill:#cac8c8;}.cls-5{fill:none;stroke-width:0.5px;}</style></defs><path class="cls-1" d="M57.61,98.52a21.88,21.88,0,0,0,15.9,6.9c7.4,0,11.4-3.3,11.4-8,0-5.3-5.9-7-12.4-8.6-8.2-1.9-17.5-4.1-17.5-14.1,0-7.5,6.5-13.9,18-13.9,8.2,0,14,3.1,17.9,7L87.41,73c-2.9-3.5-8.2-6.1-14.4-6.1-6.6,0-10.7,3-10.7,7.3,0,4.7,5.5,6.2,11.8,7.7,8.4,1.9,18.1,4.3,18.1,15,0,8.1-6.5,14.6-19,14.6-7.9,0-14.6-2.4-19.5-7.6Z"/><path class="cls-2" d="M153.93,81.64c1.75-11.85,10.48-20.82,23.58-20.82,14.7,0,23.9,11.3,23.9,25.3s-9.2,25.4-23.9,25.4c-13.09,0-21.81-9-23.58-20.88m7.9,0c1.5,7.9,7,14.16,15.68,14.16,10.3,0,16-8.8,16-18.7s-5.7-18.6-16-18.6c-8.71,0-14.2,6.28-15.69,14.14"/><path class="cls-2" d="M248.61,43.62V67.08a23.07,23.07,0,0,0-16.4-6.31c-14.71,0-23.91,11.3-23.91,25.3s9.2,25.4,23.91,25.4a23,23,0,0,0,16.4-6.34v6.39h7.5V43.62Zm-16.4,61.15c-10.31,0-16.11-8.8-16.11-18.7s5.8-18.6,16.11-18.6,16,8.8,16,18.6S242.51,104.77,232.21,104.77Z"/><path class="cls-1" d="M316.2,48.82a5.05,5.05,0,0,1,10.1,0,5.05,5.05,0,1,1-10.1,0Zm1.3,62.7V60.82H325v50.7Z"/><path class="cls-1" d="M331.8,111.52V43.62h7.5v67.9Z"/><path class="cls-1" d="M351.8,122.42a11.5,11.5,0,0,0,4.1.8c3.3,0,5.5-1.1,7.2-5.1l3.2-6.6-20.21-50.7h8.11l16.1,40.8,16-40.8h8.2l-24.2,59.3c-2.9,7-7.8,9.7-14.2,9.81a24.35,24.35,0,0,1-5.5-.7Z"/><path class="cls-3" d="M106.51,105.26v24.67H99V60.82h7.5v6.23l0,0a23.07,23.07,0,0,1,16.37-6.27c14.7,0,23.9,11.3,23.9,25.3s-9.2,25.4-23.9,25.4a23,23,0,0,1-16.36-6.3Zm32.4-19.14c0-9.8-5.7-18.6-16-18.6s-16.1,8.8-16.1,18.6,5.8,18.7,16.1,18.7S138.91,96,138.91,86.12Z"/><path class="cls-2" d="M263.23,90.62c1.76,11.87,10.48,20.9,23.57,20.9a23.07,23.07,0,0,0,16.41-6.34v6.39h7.5V60.87h-7.5v6.26a23.08,23.08,0,0,0-16.41-6.31c-13.08,0-21.81,9-23.57,20.8m7.88.08c1.48-7.88,7-14.18,15.69-14.18,10.3,0,16,8.8,16,18.6s-5.7,18.7-16,18.7c-8.67,0-14.15-6.24-15.67-14.12"/><path class="cls-1" d="M122.91,91.14c1.68,0,2.61-2.39,2.61-5.07s-.93-5-2.61-5-2.62,2.38-2.62,5S121.22,91.14,122.91,91.14Z"/><path class="cls-1" d="M232.16,91.14c1.68,0,2.61-2.39,2.61-5.07s-.93-5-2.61-5-2.62,2.38-2.62,5S230.47,91.14,232.16,91.14Z"/><path class="cls-4" d="M176.86,90.7l-30.05-.1v-9L177,81.7c1.18,0,2.15,1,2.15,4.37S178.16,90.7,176.86,90.7Z"/><line class="cls-5" x1="177.71" y1="90.7" x2="146.47" y2="90.62"/><line class="cls-5" x1="146.48" y1="81.62" x2="177.9" y2="81.7"/><path class="cls-4" d="M287.1,90.7l-30.92-.06v-9l31.1.1c1.18,0,2.14,1,2.14,4.37S288.41,90.7,287.1,90.7Z"/><line class="cls-5" x1="287.95" y1="90.7" x2="256.16" y2="90.62"/><line class="cls-5" x1="256.18" y1="81.62" x2="288.15" y2="81.7"/><path class="cls-5" d="M286.16,90.7a1.51,1.51,0,0,0,.81.38c1.68,0,2.45-2.33,2.45-5s-.77-4.82-2.45-4.82a1,1,0,0,0-.81.41"/><path class="cls-5" d="M175.92,90.7a1.5,1.5,0,0,0,.8.38c1.69,0,2.46-2.33,2.46-5s-.77-4.82-2.46-4.82a1,1,0,0,0-.8.41"/></svg>